<svg id="Layer_3" enable-background="new 0 0 64 64" height="512" viewBox="0 0 64 64" width="512" xmlns="http://www.w3.org/2000/svg"><path d="m54.707 54.707c.191-.191.283-.447.284-.707h.009v-52c0-.552-.448-1-1-1h-44c-.552 0-1 .448-1 1v56c0 2.757 2.243 5 5 5h40c.404 0 .769-.244.924-.617.155-.374.069-.804-.217-1.09l-2.293-2.293c-.263-.263-.414-.628-.414-1s.151-.737.414-1zm-37.707-51.707v50h-3c-1.13 0-2.162.391-3 1.026v-51.026zm33.165 54h-34.165v2h34.165c.161.526.435 1.014.835 1.414l.586.586h-37.586c-1.654 0-3-1.346-3-3s1.346-3 3-3h37.586l-.586.586c-.4.4-.674.888-.835 1.414zm-31.165-4v-50h34v50z"/><path d="m26 20h6v10c0 .552.448 1 1 1h6c.552 0 1-.448 1-1v-10h6c.552 0 1-.448 1-1v-6c0-.552-.448-1-1-1h-6v-6c0-.552-.448-1-1-1h-6c-.552 0-1 .448-1 1v6h-6c-.552 0-1 .448-1 1v6c0 .552.448 1 1 1zm1-6h6c.552 0 1-.448 1-1v-6h4v6c0 .552.448 1 1 1h6v4h-6c-.552 0-1 .448-1 1v10h-4v-10c0-.552-.448-1-1-1h-6z"/><path d="m50 33h-28c-.552 0-1 .448-1 1v16c0 .552.448 1 1 1h28c.552 0 1-.448 1-1v-16c0-.552-.448-1-1-1zm-1 16h-26v-14h26z"/><path d="m25 37h22v2h-22z"/><path d="m25 41h22v2h-22z"/><path d="m25 45h22v2h-22z"/></svg>