<svg id="Layer_3" enable-background="new 0 0 64 64" height="512" viewBox="0 0 64 64" width="512" xmlns="http://www.w3.org/2000/svg"><path d="m32 18c-6.627 0-12 5.373-12 12h24c0-6.627-5.373-12-12-12z" fill="#f4b2b0"/><g fill="#b3404a"><path d="m63 61h-6v-19c0-6.847-5.324-12.461-12.048-12.952-.417-5.708-4.527-10.396-9.952-11.685v-6.363h3c.552 0 1-.448 1-1v-4c0-.552-.448-1-1-1h-3v-3c0-.552-.448-1-1-1h-4c-.552 0-1 .448-1 1v3h-3c-.552 0-1 .448-1 1v4c0 .552.448 1 1 1h3v6.363c-5.425 1.288-9.535 5.976-9.952 11.685-6.724.491-12.048 6.105-12.048 12.952v19h-6v2h62zm-32 0h-6v-5c0-3.519 2.613-6.432 6-6.92zm2-11.92c3.387.488 6 3.401 6 6.92v5h-6zm-1-2.08c-4.962 0-9 4.038-9 9v5h-2v-30h22v30h-2v-5c0-4.962-4.038-9-9-9zm-23-4h10v2h-10zm10-2h-1.987c.05-2.679.739-5.309 1.987-7.661zm10.013-12c.062-3.327 1.108-6.58 2.987-9.315 1.879 2.736 2.924 5.989 2.987 9.315zm25.987 16h-10v-2h10zm-10-4v-7.661c1.248 2.353 1.936 4.982 1.987 7.661zm0 6h10v14h-10zm9.955-6h-5.969c-.058-3.473-1.082-6.874-2.924-9.805 4.764.908 8.449 4.895 8.893 9.805zm-12.006-12h-5.963c-.058-3.471-1.081-6.87-2.921-9.799 4.761.909 8.439 4.892 8.884 9.799zm-11.949-12v-7c0-.552-.448-1-1-1h-3v-2h3c.552 0 1-.448 1-1v-3h2v3c0 .552.448 1 1 1h3v2h-3c-.552 0-1 .448-1 1v7zm-1.066 2.201c-1.839 2.929-2.863 6.327-2.921 9.799h-5.963c.446-4.907 4.124-8.89 8.884-9.799zm-11.996 11.994c-1.842 2.93-2.866 6.331-2.924 9.805h-5.969c.444-4.91 4.129-8.897 8.893-9.805zm-8.938 15.805h10v14h-10z"/><path d="m27 33c-2.206 0-4 1.794-4 4v5c0 .552.448 1 1 1h6c.552 0 1-.448 1-1v-5c0-2.206-1.794-4-4-4zm2 8h-4v-4c0-1.103.897-2 2-2s2 .897 2 2z"/><path d="m41 37c0-2.206-1.794-4-4-4s-4 1.794-4 4v5c0 .552.448 1 1 1h6c.552 0 1-.448 1-1zm-2 4h-4v-4c0-1.103.897-2 2-2s2 .897 2 2z"/></g></svg>